<?xml version="1.0" standalone="no"?>
<!DOCTYPE svg PUBLIC "-//W3C//DTD SVG 20010904//EN"
 "http://www.w3.org/TR/2001/REC-SVG-20010904/DTD/svg10.dtd">
<svg version="1.0" xmlns="http://www.w3.org/2000/svg"
 width="800.000000pt" height="800.000000pt" viewBox="0 0 800.000000 800.000000"
 preserveAspectRatio="xMidYMid meet">
<metadata>
Created by potrace 1.14, written by Peter Selinger 2001-2017
</metadata>
<g transform="translate(0.000000,800.000000) scale(0.100000,-0.100000)"
fill="#000000" stroke="none">
<path d="M3750 7994 c-840 -61 -1607 -359 -2260 -880 -173 -138 -466 -431
-604 -604 -482 -604 -767 -1288 -863 -2070 -24 -204 -24 -676 0 -880 96 -782
381 -1466 863 -2070 138 -173 431 -466 604 -604 604 -482 1288 -767 2070 -863
204 -24 676 -24 880 0 782 96 1466 381 2070 863 173 138 466 431 604 604 482
604 767 1288 863 2070 24 204 24 676 0 880 -96 782 -381 1466 -863 2070 -138
173 -431 466 -604 604 -601 479 -1293 769 -2060 861 -129 16 -577 28 -700 19z
m85 -1225 c347 -48 616 -163 794 -340 60 -59 117 -149 136 -214 17 -62 20
-193 4 -244 -65 -212 -267 -387 -564 -489 -166 -57 -271 -78 -482 -97 -139
-12 -186 -12 -325 0 -155 13 -265 31 -353 55 -63 18 -188 61 -215 75 -14 6
-43 20 -65 31 -228 107 -390 288 -415 463 -39 276 134 493 524 657 44 19 87
34 95 34 9 0 33 6 56 14 59 21 177 46 221 47 22 1 53 5 69 9 47 12 431 11 520
-1z m1478 -829 c148 -22 253 -42 292 -55 22 -7 56 -17 75 -21 19 -3 41 -10 50
-15 8 -4 43 -18 78 -30 34 -12 65 -26 68 -30 3 -5 11 -9 19 -9 21 0 167 -90
242 -149 37 -30 87 -77 110 -105 46 -57 109 -173 99 -183 -3 -4 -50 -8 -104
-10 -212 -7 -446 -97 -569 -220 -88 -88 -113 -141 -113 -244 0 -75 3 -87 34
-143 35 -61 96 -127 150 -160 15 -10 24 -21 20 -25 -31 -26 -303 -91 -444
-107 -30 -3 -80 -9 -110 -12 -91 -10 -291 -7 -365 6 -64 11 -168 27 -255 39
-35 5 -217 57 -255 72 -11 5 -40 17 -65 27 -111 44 -160 90 -115 108 8 3 15
12 15 19 0 8 11 34 25 58 13 24 32 60 42 79 9 19 60 97 111 175 52 77 96 145
99 151 6 15 -24 44 -46 44 -22 0 -66 -41 -162 -150 -71 -81 -112 -133 -204
-263 -22 -31 -42 -56 -45 -57 -3 0 -29 21 -58 46 -128 112 -202 262 -202 409
0 123 -2 120 132 135 292 31 619 173 801 349 64 61 141 170 159 223 6 18 18
39 26 46 20 15 360 17 465 2z m-2928 -187 c92 -111 220 -210 362 -278 54 -26
106 -51 115 -56 10 -5 23 -9 29 -9 6 0 25 -6 42 -14 119 -51 381 -97 592 -102
l130 -3 -3 -74 c-4 -74 14 -193 29 -203 5 -3 9 -13 9 -22 0 -32 117 -197 188
-265 l71 -68 -35 -67 c-19 -37 -39 -74 -44 -82 -12 -21 -63 -136 -85 -190 -9
-25 -23 -57 -31 -72 -8 -14 -14 -38 -14 -51 0 -37 -21 -45 -39 -16 -23 34
-128 158 -170 200 -62 61 -153 132 -232 182 -122 75 -144 59 -56 -40 147 -167
205 -255 295 -453 20 -45 20 -45 1 -60 -29 -23 -172 -62 -359 -99 -95 -19
-360 -41 -485 -41 -132 0 -427 31 -545 56 -41 9 -93 19 -115 23 -166 32 -448
152 -609 260 -231 154 -377 348 -393 518 -4 41 -11 71 -19 76 -20 11 -19 103
1 114 9 5 17 31 20 68 7 66 8 69 56 170 26 57 54 91 148 186 177 177 291 244
626 369 11 4 49 15 85 25 36 9 86 23 112 31 26 8 59 14 75 14 15 1 51 7 78 15
28 7 66 14 86 14 33 1 42 -5 84 -56z m4230 -538 c126 -37 237 -98 296 -163 31
-33 49 -63 49 -78 0 -13 9 -32 20 -41 25 -22 30 -123 5 -123 -8 0 -17 -15 -21
-37 -5 -28 -23 -54 -68 -98 -259 -255 -911 -253 -1175 4 -50 49 -91 134 -91
191 0 101 91 219 216 279 38 19 77 38 86 42 24 12 89 28 178 44 51 10 129 13
245 10 148 -3 182 -7 260 -30z m-2235 -90 c0 -3 -31 -50 -70 -105 -89 -127
-107 -159 -180 -310 -34 -69 -65 -133 -71 -142 -33 -62 -118 -335 -143 -458
-8 -41 -23 -113 -33 -160 -17 -79 -18 -183 -23 -1405 l-5 -1320 -70 -5 c-38
-3 -73 -2 -76 3 -10 14 -23 1934 -16 2297 4 222 10 334 21 380 8 36 22 99 31
140 49 223 169 488 326 720 138 204 309 406 309 365z m-186 -606 c36 -17 66
-35 66 -41 0 -31 -228 -248 -261 -248 -11 0 -2 58 11 75 5 6 11 27 15 48 4 20
11 40 16 43 5 3 9 14 9 26 0 11 6 32 14 46 8 15 17 39 21 55 7 35 26 35 109
-4z m-773 -92 c112 -96 258 -270 288 -343 10 -27 10 -39 -3 -78 -9 -26 -16
-62 -16 -81 0 -42 -9 -65 -25 -65 -14 0 -25 22 -25 48 0 29 -75 216 -123 306
-41 78 -153 236 -177 251 -12 8 -13 25 -2 25 5 0 42 -28 83 -63z"/>
</g>
</svg>
